<?xml version="1.0" standalone="no"?>
<!DOCTYPE svg PUBLIC "-//W3C//DTD SVG 20010904//EN"
 "http://www.w3.org/TR/2001/REC-SVG-20010904/DTD/svg10.dtd">
<svg version="1.0" xmlns="http://www.w3.org/2000/svg"
 width="128.000000pt" height="128.000000pt" viewBox="0 0 128.000000 128.000000"
 preserveAspectRatio="xMidYMid meet">
<metadata>
Created by potrace 1.11, written by Peter Selinger 2001-2013
</metadata>
<g transform="translate(0.000000,128.000000) scale(0.100000,-0.100000)"
fill="#000000" stroke="none">
<path d="M664 1261 c-5 -3 -10 -137 -10 -297 l-1 -291 298 0 299 0 0 41 c0 61
-36 182 -77 256 -69 124 -222 244 -358 279 -52 14 -140 21 -151 12z"/>
<path d="M446 1185 c-105 -31 -172 -71 -257 -155 -58 -57 -85 -93 -112 -150
-116 -245 -74 -503 113 -691 124 -124 271 -181 448 -174 115 5 248 56 335 127
l27 23 -193 224 -194 224 0 74 c-1 40 -2 174 -2 298 l-1 224 -47 -2 c-25 -1
-78 -11 -117 -22z"/>
<path d="M670 624 c0 -3 87 -106 192 -231 l193 -226 51 57 c87 96 148 235 156
356 l3 45 -297 1 c-164 1 -298 0 -298 -2z"/>
</g>
</svg>
